# xmcd
#
# Track frame offsets: 
#        150
#        12190
#        25356
#        37430
#        48383
#        62563
#        76256
#        88082
#        100393
#        111476
#        126023
#        139083
#        153293
#        164312
#        177232
#        187913
#        199139
#        211184
#        223415
#        237242
#        247945
#        261239
#        275001
#        286556
#        298220
#        311472
#        326154
#        335833
#
# Disc length: 4681 seconds
#
# Revision: 8
# Processed by: cddbd v1.5.2PL0 Copyright (c) Steve Scherf et al.
# Submitted via: ExactAudioCopyFreeDBPlugin 1.0
#
DISCID=ab12471c
DTITLE=B.B. King - The Vintage Years [CD 3) - Take A Swing With Me
DYEAR=2002
DGENRE=Blues
TTITLE0=Love You Baby (Aka Take A Swing With Me)
TTITLE1=When My Heart Beats Like a Hammer
TTITLE2=The Woman I Love
TTITLE3=Everything I Do Is Wrong
TTITLE4=Whole Lotta' Love
TTITLE5=Boogie Rock (Aka House Rocker)
TTITLE6=Dark Is The Night Pt. 1
TTITLE7=Dark Is The Night Pt. 2
TTITLE8=Let's Do the Boogie
TTITLE9=Sweet Little Angel
TTITLE10=Confessin' the Blues
TTITLE11=Baby, Look at You
TTITLE12=You Don't Know
TTITLE13=Be Careful With a Fool
TTITLE14=Recession Blues
TTITLE15=Days of Old
TTITLE16=You Know I Go for You
TTITLE17=Don't Look Now, But I've Got The Blues
TTITLE18=Sweet Thing
TTITLE19=I've Got Papers on You, Baby
TTITLE20=Tomorrow Is Another Day
TTITLE21=Sneakin' Around
TTITLE22=Please Accept My Love
TTITLE23=Early in the Morning
TTITLE24=On My Word of Honor
TTITLE25=Don't Get Around Much Anymore
TTITLE26=Why Not
TTITLE27=Precious Lord
EXTD=
EXTT0=
EXTT1=
EXTT2=
EXTT3=
EXTT4=
EXTT5=
EXTT6=
EXTT7=
EXTT8=
EXTT9=
EXTT10=
EXTT11=
EXTT12=
EXTT13=
EXTT14=
EXTT15=
EXTT16=
EXTT17=
EXTT18=
EXTT19=
EXTT20=
EXTT21=
EXTT22=
EXTT23=
EXTT24=
EXTT25=
EXTT26=
EXTT27=
PLAYORDER=
